HIERARCHY
ROOT Hips
{
	OFFSET 0.000000 71.427986 0.000000
	CHANNELS 6 Xposition Yposition Zposition Xrotation Yrotation Zrotation
	JOINT Pelvis
	{
		OFFSET 0.000000 0.000000 0.000000
		CHANNELS 3 Xrotation Yrotation Zrotation
		JOINT LeftUpLeg
		{
			OFFSET 6.797100 -2.508499 -1.318700
			CHANNELS 3 Xrotation Yrotation Zrotation
			JOINT LeftLeg
			{
				OFFSET 0.069008 -29.241863 0.690200
				CHANNELS 3 Xrotation Yrotation Zrotation
				JOINT LeftFoot
				{
					OFFSET -0.069008 -29.568123 -0.266800
					CHANNELS 3 Xrotation Yrotation Zrotation
					JOINT LeftToeBase
					{
						OFFSET 3.145500 -8.631000 16.059900
						CHANNELS 3 Xrotation Yrotation Zrotation
						End Site
						{
							OFFSET 0.000000 18.501587 0.000000
						}
					}
				}
			}
			JOINT Left_ShortSleeve
			{
				OFFSET 0.265923 -10.480953 1.153800
				CHANNELS 3 Xrotation Yrotation Zrotation
				End Site
				{
					OFFSET 1.725763 19.823879 0.000000
				}
			}
		}
		JOINT RightUpLeg
		{
			OFFSET -6.797100 -2.508499 -1.318700
			CHANNELS 3 Xrotation Yrotation Zrotation
			JOINT RightLeg
			{
				OFFSET -0.082453 -29.241932 0.688000
				CHANNELS 3 Xrotation Yrotation Zrotation
				JOINT RightFoot
				{
					OFFSET 0.082453 -29.568058 -0.264600
					CHANNELS 3 Xrotation Yrotation Zrotation
					JOINT RightToeBase
					{
						OFFSET -3.115300 -8.682800 16.113400
						CHANNELS 3 Xrotation Yrotation Zrotation
						End Site
						{
							OFFSET 0.000000 18.567114 0.000000
						}
					}
				}
			}
			JOINT Right_ShortSleeve
			{
				OFFSET -0.265923 -10.480953 1.153800
				CHANNELS 3 Xrotation Yrotation Zrotation
				End Site
				{
					OFFSET -1.725766 19.823910 0.000000
				}
			}
		}
	}
	JOINT Spine
	{
		OFFSET 0.000000 13.368103 0.470500
		CHANNELS 3 Xrotation Yrotation Zrotation
		JOINT Spine1
		{
			OFFSET 0.147000 13.837402 0.538800
			CHANNELS 3 Xrotation Yrotation Zrotation
			JOINT Spine2
			{
				OFFSET 0.168000 16.242897 -1.435500
				CHANNELS 3 Xrotation Yrotation Zrotation
				JOINT Neck
				{
					OFFSET 0.217200 18.631500 -1.679100
					CHANNELS 3 Xrotation Yrotation Zrotation
					JOINT Head
					{
						OFFSET 0.000000 6.599396 1.385900
						CHANNELS 3 Xrotation Yrotation Zrotation
						JOINT Hat
						{
							OFFSET -0.532200 27.220596 -10.096100
							CHANNELS 3 Xrotation Yrotation Zrotation
							End Site
							{
								OFFSET 0.000000 22.029861 0.000000
							}
						}
						JOINT HairD
						{
							OFFSET -10.777400 17.437393 -1.325900
							CHANNELS 3 Xrotation Yrotation Zrotation
							JOINT HairD1
							{
								OFFSET -3.290299 -11.051193 1.062200
								CHANNELS 3 Xrotation Yrotation Zrotation
								End Site
								{
									OFFSET 0.000000 11.579437 0.000000
								}
							}
						}
						JOINT HairB
						{
							OFFSET -10.777400 17.437393 1.467900
							CHANNELS 3 Xrotation Yrotation Zrotation
							JOINT HairB1
							{
								OFFSET -1.561200 -12.956299 3.590200
								CHANNELS 3 Xrotation Yrotation Zrotation
								End Site
								{
									OFFSET 0.000000 13.534866 0.000000
								}
							}
						}
						JOINT HairA
						{
							OFFSET 9.713100 17.437393 1.467900
							CHANNELS 3 Xrotation Yrotation Zrotation
							JOINT HairA1
							{
								OFFSET 1.561200 -12.956299 3.590200
								CHANNELS 3 Xrotation Yrotation Zrotation
								End Site
								{
									OFFSET 0.000000 13.534866 0.000000
								}
							}
						}
						JOINT HairC
						{
							OFFSET 9.713100 17.437393 -1.325900
							CHANNELS 3 Xrotation Yrotation Zrotation
							JOINT HairC1
							{
								OFFSET 3.290300 -11.051193 1.062200
								CHANNELS 3 Xrotation Yrotation Zrotation
								End Site
								{
									OFFSET 0.000000 11.579437 0.000000
								}
							}
						}
					}
				}
				JOINT LeftShoulder
				{
					OFFSET 5.101800 15.108002 -2.763700
					CHANNELS 3 Xrotation Yrotation Zrotation
					JOINT LeftArm
					{
						OFFSET 9.825497 2.506317 -1.597400
						CHANNELS 3 Xrotation Yrotation Zrotation
						JOINT LeftForeArm
						{
							OFFSET 21.966244 0.000000 0.000000
							CHANNELS 3 Xrotation Yrotation Zrotation
							JOINT LeftHand
							{
								OFFSET 33.879036 0.000000 0.000000
								CHANNELS 3 Xrotation Yrotation Zrotation
								JOINT LeftHandThumb1
								{
									OFFSET 6.715286 -2.359680 3.363841
									CHANNELS 3 Xrotation Yrotation Zrotation
									JOINT LeftHandThumb2
									{
										OFFSET 2.507072 -1.447464 1.447461
										CHANNELS 3 Xrotation Yrotation Zrotation
										JOINT LeftHandThumb3
										{
											OFFSET 2.898338 -1.673355 1.673357
											CHANNELS 3 Xrotation Yrotation Zrotation
											End Site
											{
												OFFSET -0.295959 3.727692 -0.131651
											}
										}
									}
								}
								JOINT LeftHandIndex1
								{
									OFFSET 14.190811 -0.254547 3.840278
									CHANNELS 3 Xrotation Yrotation Zrotation
									JOINT LeftHandIndex2
									{
										OFFSET 3.551727 0.000000 -0.000000
										CHANNELS 3 Xrotation Yrotation Zrotation
										JOINT LeftHandIndex3
										{
											OFFSET 2.894196 0.000000 0.000000
											CHANNELS 3 Xrotation Yrotation Zrotation
											End Site
											{
												OFFSET -1.000603 2.690872 0.366626
											}
										}
									}
								}
								JOINT LeftHandMiddle1
								{
									OFFSET 13.776489 0.000000 0.000000
									CHANNELS 3 Xrotation Yrotation Zrotation
									JOINT LeftHandMiddle2
									{
										OFFSET 3.438232 0.000000 0.000000
										CHANNELS 3 Xrotation Yrotation Zrotation
										JOINT LeftHandMiddle3
										{
											OFFSET 3.691551 0.000000 0.000000
											CHANNELS 3 Xrotation Yrotation Zrotation
											End Site
											{
												OFFSET -1.082298 3.499527 0.457670
											}
										}
									}
								}
								JOINT LeftHandRing1
								{
									OFFSET 13.966164 -0.268127 -3.067488
									CHANNELS 3 Xrotation Yrotation Zrotation
									JOINT LeftHandRing2
									{
										OFFSET 3.162567 0.000000 0.000000
										CHANNELS 3 Xrotation Yrotation Zrotation
										JOINT LeftHandRing3
										{
											OFFSET 3.324348 0.000000 0.000000
											CHANNELS 3 Xrotation Yrotation Zrotation
											End Site
											{
												OFFSET -0.861900 3.184998 0.405154
											}
										}
									}
								}
								JOINT LeftHandPinky1
								{
									OFFSET 13.131393 -0.168503 -5.746925
									CHANNELS 3 Xrotation Yrotation Zrotation
									JOINT LeftHandPinky2
									{
										OFFSET 2.849182 0.000000 0.000000
										CHANNELS 3 Xrotation Yrotation Zrotation
										JOINT LeftHandPinky3
										{
											OFFSET 2.805038 0.000000 0.000000
											CHANNELS 3 Xrotation Yrotation Zrotation
											End Site
											{
												OFFSET -0.882500 2.642609 0.325652
											}
										}
									}
								}
							}
							JOINT Left_Sleeve
							{
								OFFSET 6.592125 -0.646545 0.805568
								CHANNELS 3 Xrotation Yrotation Zrotation
								End Site
								{
									OFFSET -0.000179 20.275787 -0.000000
								}
							}
						}
					}
				}
				JOINT RightShoulder
				{
					OFFSET -5.731700 15.108002 -2.763700
					CHANNELS 3 Xrotation Yrotation Zrotation
					JOINT RightArm
					{
						OFFSET -9.825497 2.506317 -1.597400
						CHANNELS 3 Xrotation Yrotation Zrotation
						JOINT RightForeArm
						{
							OFFSET -21.966242 0.000000 0.000000
							CHANNELS 3 Xrotation Yrotation Zrotation
							JOINT RightHand
							{
								OFFSET -33.879032 0.000000 0.000000
								CHANNELS 3 Xrotation Yrotation Zrotation
								JOINT RightHandThumb1
								{
									OFFSET -6.715286 -2.359680 3.363841
									CHANNELS 3 Xrotation Yrotation Zrotation
									JOINT RightHandThumb2
									{
										OFFSET -2.507072 -1.447464 1.447461
										CHANNELS 3 Xrotation Yrotation Zrotation
										JOINT RightHandThumb3
										{
											OFFSET -2.898338 -1.673355 1.673357
											CHANNELS 3 Xrotation Yrotation Zrotation
											End Site
											{
												OFFSET 0.295959 3.727692 -0.131651
											}
										}
									}
								}
								JOINT RightHandIndex1
								{
									OFFSET -14.190811 -0.254547 3.840278
									CHANNELS 3 Xrotation Yrotation Zrotation
									JOINT RightHandIndex2
									{
										OFFSET -3.551727 0.000000 -0.000000
										CHANNELS 3 Xrotation Yrotation Zrotation
										JOINT RightHandIndex3
										{
											OFFSET -2.894196 0.000000 0.000000
											CHANNELS 3 Xrotation Yrotation Zrotation
											End Site
											{
												OFFSET 1.000603 2.690872 0.366626
											}
										}
									}
								}
								JOINT RightHandMiddle1
								{
									OFFSET -13.776489 0.000000 0.000000
									CHANNELS 3 Xrotation Yrotation Zrotation
									JOINT RightHandMiddle2
									{
										OFFSET -3.438232 0.000000 0.000000
										CHANNELS 3 Xrotation Yrotation Zrotation
										JOINT RightHandMiddle3
										{
											OFFSET -3.691551 0.000000 0.000000
											CHANNELS 3 Xrotation Yrotation Zrotation
											End Site
											{
												OFFSET 1.082298 3.499527 0.457670
											}
										}
									}
								}
								JOINT RightHandRing1
								{
									OFFSET -13.966164 -0.268127 -3.067488
									CHANNELS 3 Xrotation Yrotation Zrotation
									JOINT RightHandRing2
									{
										OFFSET -3.162567 0.000000 0.000000
										CHANNELS 3 Xrotation Yrotation Zrotation
										JOINT RightHandRing3
										{
											OFFSET -3.324348 0.000000 0.000000
											CHANNELS 3 Xrotation Yrotation Zrotation
											End Site
											{
												OFFSET 0.861900 3.184998 0.405154
											}
										}
									}
								}
								JOINT RightHandPinky1
								{
									OFFSET -13.131393 -0.168503 -5.746925
									CHANNELS 3 Xrotation Yrotation Zrotation
									JOINT RightHandPinky2
									{
										OFFSET -2.849182 0.000000 0.000000
										CHANNELS 3 Xrotation Yrotation Zrotation
										JOINT RightHandPinky3
										{
											OFFSET -2.805038 0.000000 0.000000
											CHANNELS 3 Xrotation Yrotation Zrotation
											End Site
											{
												OFFSET 0.882500 2.642609 0.325652
											}
										}
									}
								}
							}
							JOINT Right_Sleeve
							{
								OFFSET -6.592125 -0.646545 0.805568
								CHANNELS 3 Xrotation Yrotation Zrotation
								End Site
								{
									OFFSET 0.000179 20.275787 -0.000000
								}
							}
						}
					}
				}
				JOINT Bind_Right_JacketString
				{
					OFFSET -3.534800 11.969597 7.200700
					CHANNELS 3 Xrotation Yrotation Zrotation
					JOINT Bind_Right_JacketString1
					{
						OFFSET -0.319900 -6.102600 2.794100
						CHANNELS 3 Xrotation Yrotation Zrotation
						End Site
						{
							OFFSET 0.000000 6.719452 0.000000
						}
					}
				}
				JOINT Bind_Left_JacketString
				{
					OFFSET 2.904800 11.969597 7.200700
					CHANNELS 3 Xrotation Yrotation Zrotation
					JOINT Bind_Left_JacketString1
					{
						OFFSET 0.364800 -5.904503 3.186800
						CHANNELS 3 Xrotation Yrotation Zrotation
						End Site
						{
							OFFSET 0.000000 6.719513 0.000000
						}
					}
				}
				JOINT HairE
				{
					OFFSET 5.915200 17.612701 -11.592200
					CHANNELS 3 Xrotation Yrotation Zrotation
					JOINT HairE1
					{
						OFFSET 0.289200 -7.171898 -1.284500
						CHANNELS 3 Xrotation Yrotation Zrotation
						End Site
						{
							OFFSET 0.000000 7.291756 0.000000
						}
					}
				}
				JOINT HairF
				{
					OFFSET -0.864800 17.612701 -11.592200
					CHANNELS 3 Xrotation Yrotation Zrotation
					JOINT HairF1
					{
						OFFSET 0.000000 -14.087097 -2.127501
						CHANNELS 3 Xrotation Yrotation Zrotation
						End Site
						{
							OFFSET 0.000000 14.246841 0.000000
						}
					}
				}
				JOINT HairG
				{
					OFFSET -8.087700 17.612701 -11.592200
					CHANNELS 3 Xrotation Yrotation Zrotation
					JOINT HairG1
					{
						OFFSET -0.293600 -6.081398 -0.910100
						CHANNELS 3 Xrotation Yrotation Zrotation
						End Site
						{
							OFFSET 0.000000 6.156120 0.000000
						}
					}
				}
			}
		}
	}
	JOINT Pouch
	{
		OFFSET 0.000000 4.394501 10.847300
		CHANNELS 3 Xrotation Yrotation Zrotation
		End Site
		{
			OFFSET 0.000000 21.880577 0.000000
		}
	}
	JOINT Bag
	{
		OFFSET -13.229000 4.813004 -0.593300
		CHANNELS 3 Xrotation Yrotation Zrotation
		End Site
		{
			OFFSET 0.000000 21.880577 0.000000
		}
	}
	JOINT OccupyGuyFacialAnim_Joint
	{
		OFFSET 1.000000 -70.206398 -1.655000
		CHANNELS 3 Xrotation Yrotation Zrotation
		End Site
		{
			OFFSET 0.000000 21.880577 0.000000
		}
	}
}
MOTION
Frames: 4
Frame Time: 0.033333
-1.184553 59.705551 -0.817263 18.348142 -11.706785 11.027800 0.000002 0.000000 -0.000000 -67.719283 -7.482598 9.889684 76.587020 6.676356 3.406081 4.730090 0.187622 -18.046881 0.000002 -0.000000 -0.000001 -0.000001 0.000003 0.000001 -59.908177 -3.760184 15.073387 63.795148 -19.018390 -1.261786 -22.553636 5.108330 -21.213507 0.000000 -0.000002 0.000001 -0.000002 -0.000000 0.000001 17.939391 7.003553 2.335280 6.377059 1.557685 -0.111413 6.404047 1.388113 -0.042125 3.370789 -41.035404 22.577160 10.045262 -35.118862 12.251489 -0.000001 -0.000000 0.000000 -0.000001 -0.000000 0.000000 -0.000001 -0.000000 -0.000000 -0.000001 -0.000000 -0.000000 -0.000004 0.000002 0.000002 -0.000001 -0.000000 -0.000000 -0.000004 0.000002 0.000002 -0.000001 -0.000000 0.000000 -0.000001 -0.000000 0.000000 6.052181 18.668121 6.062551 17.073161 -20.037393 -54.133914 69.901290 -17.199912 49.221355 10.330416 -30.316983 37.132962 -9.331544 3.471375 -7.771942 -3.526426 5.992578 -11.731722 -0.000000 0.000001 0.000001 2.950643 -12.213429 7.303413 -0.001901 -0.013102 -14.886872 -0.000004 -0.000001 -0.000002 -0.428351 -3.917239 -6.247956 -0.001125 -0.009755 -15.259833 0.000000 0.000001 -0.000001 3.582732 12.303595 -16.370789 -0.016397 -0.033077 -52.623513 -0.000000 0.000002 -0.000004 0.000693 20.812481 -16.406975 -0.017047 -0.031991 -51.783854 -0.000000 0.000000 0.000003 0.000002 0.000003 -0.000002 0.910035 7.217204 -0.166616 -44.489342 53.651225 42.968426 -8.780058 49.965340 8.298895 -0.001036 1.531055 -35.309141 -4.453589 -7.293484 20.381119 0.000568 -8.684420 0.000700 -0.000000 -0.000001 0.000000 -0.000514 -0.006684 -8.932495 -0.000519 0.007238 6.265802 -0.000004 -0.000001 0.000002 -0.000043 0.002632 3.005842 -0.000327 0.004858 6.344396 0.000005 -0.000000 -0.000001 2.546343 -5.987546 23.063899 -0.002731 0.015370 21.773012 0.000001 -0.000001 0.000001 8.673205 -16.457443 33.264527 -0.008762 0.026271 37.071548 -0.000000 0.000002 0.000003 -0.000002 0.000000 -0.000001 -0.000001 -0.000001 -0.000002 0.000000 0.000000 -0.000000 -0.000001 -0.000001 -0.000001 -0.000001 -0.000001 -0.000001 -0.000001 -0.000001 -0.000002 0.000000 0.000000 -0.000000 -0.000001 -0.000001 -0.000001 -0.000001 -0.000001 -0.000001 -0.000001 -0.000001 -0.000002 0.000000 0.000000 -0.000000 0.000002 0.000000 -0.000000 0.000002 0.000000 -0.000000 0.000002 0.000000 -0.000000 
-1.536937 60.515228 -6.879486 18.014822 -12.859110 10.570251 0.000000 0.000000 0.000000 -61.727719 -3.202853 13.396633 86.115722 0.983202 1.752946 7.355144 -0.324682 -19.910147 -0.000001 -0.000000 -0.000000 0.000002 -0.000001 -0.000001 -60.926694 -4.226592 15.387238 52.679576 -13.155641 -0.433671 -6.786241 0.567565 -17.930305 -0.000000 0.000001 -0.000000 0.000001 -0.000001 0.000000 18.409950 6.172448 1.572085 6.589353 1.534136 -0.253108 6.612068 1.339775 -0.179268 3.865498 -39.551652 21.183668 11.814735 -33.995395 14.403529 0.000002 -0.000001 -0.000000 0.000002 -0.000001 -0.000000 0.000002 -0.000001 -0.000001 0.000002 -0.000001 0.000001 0.000003 -0.000002 0.000001 0.000002 -0.000001 0.000001 0.000003 -0.000002 0.000001 0.000002 -0.000001 -0.000000 0.000002 -0.000001 -0.000000 5.998676 18.954545 6.161246 14.970009 -19.321801 -56.068787 70.233940 -17.093503 47.908395 10.428598 -30.708701 37.281204 -9.331544 3.471377 -7.771946 -3.526428 5.992577 -11.731721 -0.000000 0.000001 -0.000000 2.950648 -12.213430 7.303411 -0.001896 -0.013099 -14.886869 0.000002 0.000001 -0.000002 -0.428352 -3.917239 -6.247957 -0.001124 -0.009755 -15.259834 0.000002 -0.000001 -0.000001 3.582730 12.303595 -16.370792 -0.016398 -0.033073 -52.623513 -0.000000 0.000000 0.000001 0.000694 20.812478 -16.406973 -0.017050 -0.031992 -51.783854 -0.000000 0.000000 0.000003 -0.000000 0.000003 -0.000000 0.918118 7.749918 -0.354442 -42.945928 54.029194 43.722981 -9.958593 49.851717 8.502798 0.174420 2.348203 -36.085730 -4.453589 -7.293483 20.381121 0.000567 -8.684419 0.000703 -0.000003 -0.000001 0.000001 -0.000516 -0.006684 -8.932496 -0.000515 0.007238 6.265797 -0.000003 -0.000001 0.000002 -0.000040 0.002632 3.005842 -0.000332 0.004859 6.344392 -0.000000 0.000000 -0.000001 2.546341 -5.987545 23.063899 -0.002732 0.015369 21.773017 0.000003 0.000002 -0.000004 8.673205 -16.457445 33.264531 -0.008761 0.026271 37.071545 0.000004 -0.000001 0.000004 -0.000003 -0.000001 0.000000 -0.000001 0.000000 0.000002 -0.000001 -0.000001 0.000001 -0.000001 0.000000 0.000002 -0.000001 0.000000 0.000002 -0.000001 0.000000 0.000002 -0.000001 -0.000001 0.000001 -0.000001 0.000000 0.000002 -0.000001 0.000000 0.000002 -0.000001 0.000000 0.000002 -0.000001 -0.000001 0.000001 0.000000 0.000000 0.000000 0.000000 0.000000 0.000000 0.000000 0.000000 0.000000 
-1.705905 61.529190 -12.722139 18.965724 -12.125905 10.127288 -0.000001 0.000000 -0.000000 -53.923206 0.358452 12.810543 85.779055 -5.271148 0.771742 9.496468 -0.728640 -23.351797 -0.000001 0.000000 0.000001 -0.000002 0.000000 -0.000000 -61.049843 -5.118002 13.845987 41.666715 -8.844373 0.781361 -2.008362 -1.597603 -10.643217 0.000000 -0.000001 -0.000000 -0.000002 -0.000000 -0.000000 17.774135 5.544217 1.911321 6.228014 1.338123 -0.102960 6.248500 1.162657 -0.033962 3.747244 -39.094282 20.160499 13.147219 -33.610674 14.944830 -0.000001 0.000002 -0.000000 -0.000001 0.000002 -0.000000 -0.000001 0.000002 -0.000001 -0.000001 0.000002 -0.000000 -0.000002 -0.000003 -0.000001 -0.000001 0.000002 -0.000000 -0.000002 -0.000003 -0.000001 -0.000001 0.000002 -0.000000 -0.000001 0.000002 -0.000000 6.199352 18.762839 5.685080 13.423818 -18.970365 -58.139267 70.568565 -16.893633 47.398344 10.266382 -29.939656 37.060835 -9.331543 3.471376 -7.771942 -3.526429 5.992577 -11.731722 -0.000000 0.000001 -0.000000 2.950646 -12.213430 7.303411 -0.001898 -0.013098 -14.886865 -0.000000 0.000003 -0.000003 -0.428351 -3.917238 -6.247958 -0.001125 -0.009755 -15.259833 0.000004 0.000001 0.000001 3.582733 12.303595 -16.370785 -0.016396 -0.033073 -52.623513 0.000001 0.000002 0.000001 0.000695 20.812478 -16.406972 -0.017048 -0.031991 -51.783854 0.000001 -0.000003 0.000002 0.000000 -0.000001 0.000001 0.912924 7.685664 -0.249740 -40.792656 54.737006 43.385078 -11.729668 49.269477 9.307879 0.233906 2.583662 -36.367872 -4.453585 -7.293484 20.381124 0.000571 -8.684417 0.000704 0.000001 -0.000001 0.000000 -0.000515 -0.006684 -8.932495 -0.000520 0.007240 6.265796 -0.000003 0.000001 0.000002 -0.000047 0.002633 3.005841 -0.000327 0.004857 6.344399 0.000002 0.000000 0.000001 2.546348 -5.987547 23.063899 -0.002730 0.015369 21.773012 0.000003 -0.000002 -0.000004 8.673203 -16.457447 33.264538 -0.008764 0.026273 37.071545 0.000003 0.000006 -0.000002 -0.000001 0.000000 0.000000 -0.000004 -0.000000 -0.000001 -0.000002 -0.000001 -0.000001 -0.000004 -0.000000 -0.000000 -0.000004 -0.000000 -0.000000 -0.000004 -0.000000 -0.000001 -0.000002 -0.000001 -0.000000 -0.000004 -0.000000 -0.000000 -0.000004 -0.000000 -0.000000 -0.000004 -0.000000 -0.000001 -0.000002 -0.000001 -0.000000 -0.000001 0.000000 -0.000000 -0.000001 0.000000 -0.000000 -0.000001 0.000000 -0.000000 
-1.780972 62.396263 -18.582239 21.076424 -10.523135 10.168379 0.000001 -0.000001 0.000001 -46.241050 3.124595 7.410105 81.060726 -8.437089 1.038550 -2.128331 1.570857 -16.687404 0.000001 -0.000000 -0.000000 -0.000000 -0.000000 -0.000000 -63.323196 -6.087523 11.462661 33.844506 -5.452226 2.421580 0.241839 -2.853079 -2.677498 -0.000000 0.000000 0.000001 -0.000001 -0.000002 0.000001 16.484127 5.285342 2.442928 5.520437 1.253644 0.151868 5.543660 1.117787 0.213275 2.451327 -39.669964 19.595620 13.597361 -33.915963 13.698107 0.000002 -0.000000 -0.000000 0.000002 -0.000000 -0.000000 0.000002 -0.000000 -0.000001 0.000002 -0.000000 -0.000001 0.000000 -0.000000 0.000001 0.000002 -0.000000 -0.000001 0.000000 -0.000000 0.000001 0.000002 -0.000000 -0.000000 0.000002 -0.000000 -0.000000 6.508303 18.373173 4.946715 12.790118 -18.800827 -60.288632 70.856116 -16.650922 47.439325 9.867715 -28.402356 36.382136 -9.331544 3.471374 -7.771943 -3.526427 5.992577 -11.731726 -0.000000 -0.000000 -0.000000 2.950643 -12.213431 7.303412 -0.001897 -0.013102 -14.886872 0.000001 0.000002 -0.000001 -0.428354 -3.917239 -6.247959 -0.001120 -0.009756 -15.259840 0.000003 0.000001 0.000001 3.582729 12.303593 -16.370789 -0.016398 -0.033073 -52.623517 -0.000001 0.000002 -0.000004 0.000692 20.812476 -16.406972 -0.017050 -0.031992 -51.783858 -0.000001 -0.000005 0.000002 -0.000000 -0.000002 -0.000000 0.898803 7.192532 0.066511 -39.143968 56.083728 42.637350 -13.727505 48.582224 10.513948 0.166614 2.263399 -36.153916 -4.453583 -7.293483 20.381122 0.000573 -8.684422 0.000702 -0.000002 -0.000001 -0.000000 -0.000514 -0.006684 -8.932495 -0.000518 0.007237 6.265803 0.000003 0.000001 0.000002 -0.000043 0.002633 3.005841 -0.000329 0.004857 6.344400 0.000001 0.000001 -0.000001 2.546346 -5.987546 23.063898 -0.002729 0.015368 21.773014 0.000003 -0.000003 0.000002 8.673204 -16.457443 33.264534 -0.008761 0.026272 37.071545 -0.000001 -0.000002 -0.000001 -0.000000 -0.000000 0.000000 0.000001 0.000000 -0.000000 0.000002 0.000001 0.000002 0.000001 0.000000 -0.000000 0.000001 0.000000 -0.000000 0.000001 0.000000 -0.000000 0.000002 0.000001 0.000002 0.000001 0.000000 -0.000000 0.000001 0.000000 -0.000000 0.000001 0.000000 -0.000000 0.000002 0.000001 0.000002 0.000001 -0.000001 0.000001 0.000001 -0.000001 0.000001 0.000001 -0.000001 0.000001 
